<svg width="28" height="28" viewBox="0 0 28 28" fill="none" xmlns="http://www.w3.org/2000/svg">
<path d="M8.75033 25.6667C7.62255 25.6667 6.66005 25.2681 5.86283 24.4709C5.0656 23.6737 4.66699 22.7112 4.66699 21.5834V6.41671C4.66699 5.28893 5.0656 4.32643 5.86283 3.52921C6.66005 2.73199 7.62255 2.33337 8.75033 2.33337H21.0003C21.642 2.33337 22.1913 2.56185 22.6482 3.01879C23.1052 3.47574 23.3337 4.02504 23.3337 4.66671V18.6959C23.3337 19.007 23.2559 19.2889 23.1003 19.5417C22.9448 19.7945 22.7309 19.9889 22.4587 20.125C22.1864 20.2612 21.9725 20.4605 21.817 20.723C21.6614 20.9855 21.5837 21.2723 21.5837 21.5834C21.5837 21.8945 21.6614 22.1862 21.817 22.4584C21.9725 22.7306 22.1864 22.925 22.4587 23.0417C22.7114 23.1389 22.9205 23.2848 23.0857 23.4792C23.251 23.6737 23.3337 23.907 23.3337 24.1792V24.4709C23.3337 24.8014 23.2219 25.0834 22.9982 25.3167C22.7746 25.55 22.4975 25.6667 22.167 25.6667H8.75033ZM12.3378 13.0959H15.6337L16.217 14.7292C16.2559 14.8653 16.3288 14.9723 16.4357 15.05C16.5427 15.1278 16.6739 15.1667 16.8295 15.1667C17.0628 15.1667 17.2475 15.0695 17.3837 14.875C17.5198 14.6806 17.5392 14.4764 17.442 14.2625L14.8753 7.43754C14.8364 7.30143 14.7587 7.19448 14.642 7.11671C14.5253 7.03893 14.3892 7.00004 14.2337 7.00004H13.7087C13.5531 7.00004 13.417 7.03893 13.3003 7.11671C13.1837 7.19448 13.1059 7.30143 13.067 7.43754L10.5003 14.2917C10.4031 14.5056 10.4274 14.7049 10.5732 14.8896C10.7191 15.0743 10.9087 15.1667 11.142 15.1667C11.2975 15.1667 11.4288 15.1278 11.5357 15.05C11.6427 14.9723 11.7156 14.8653 11.7545 14.7292L12.3378 13.0959ZM12.7462 11.9L13.942 8.51671H14.0295L15.1962 11.9H12.7462ZM8.75033 23.3334H19.6295C19.5128 23.0612 19.4205 22.7841 19.3524 22.5021C19.2844 22.2202 19.2503 21.9139 19.2503 21.5834C19.2503 21.2723 19.2795 20.9709 19.3378 20.6792C19.3962 20.3875 19.4934 20.1056 19.6295 19.8334H8.75033C8.24477 19.8334 7.82671 20.0035 7.49616 20.3438C7.1656 20.6841 7.00033 21.0973 7.00033 21.5834C7.00033 22.0889 7.1656 22.507 7.49616 22.8375C7.82671 23.1681 8.24477 23.3334 8.75033 23.3334Z" fill="#8F8D98"/>
</svg>
