<?xml version="1.0" encoding="utf-8"?>
<!-- Svg Vector Icons : http://www.onlinewebfonts.com/icon -->
<!DOCTYPE svg PUBLIC "-//W3C//DTD SVG 1.1//EN" "http://www.w3.org/Graphics/SVG/1.1/DTD/svg11.dtd">
<svg version="1.1" xmlns="http://www.w3.org/2000/svg" xmlns:xlink="http://www.w3.org/1999/xlink" x="0px" y="0px" viewBox="0 0 256 256" enable-background="new 0 0 256 256" xml:space="preserve">
<metadata> Svg Vector Icons : http://www.onlinewebfonts.com/icon </metadata>
<g><g><path fill="#000000" d="M158.5,14.1c-40.9-11-82.5,1-111.3,27.9l18.2,9.6c23.8-19.4,56.2-27.5,88.1-18.9c52.7,14.1,84,68.3,69.8,121c-14.1,52.7-68.3,84-121,69.8c-29.5-7.9-40-34.6-17.6-53.4c15.1-12.7,42.6-14.8,59.6-11.9c19.5,3.4,33.8,10.5,32.1,22c9.8-5.3,20.2-19.9,17.5-32c-2.4-10.8-14.9-20.2-23.1-26.8c-7.4-18.8-49.7-40-95.2-62.7l0,0l0,0c-3.9-2-7.9-3.9-11.8-5.9c0,0,0,0,0.1-0.1l-18.3-9.3C31,57.7,19.8,76.1,14,97.5c-16.9,62.9,20.5,127.6,83.4,144.5c62.9,16.9,127.6-20.5,144.5-83.4C258.8,95.6,221.5,30.9,158.5,14.1z M149.5,117.2c-15.3,13.4-35.6-2.2-40.1-22.3C123.4,101.2,137.2,108.1,149.5,117.2z"/></g></g>
</svg>