<svg width="16" height="16" viewBox="0 0 16 16" fill="none" xmlns="http://www.w3.org/2000/svg">
<path d="M2.66667 14C2.47778 14 2.31944 13.9361 2.19167 13.8083C2.06389 13.6806 2 13.5222 2 13.3333V11.7167C2 11.5389 2.03333 11.3694 2.1 11.2083C2.16667 11.0472 2.26111 10.9056 2.38333 10.7833L10.8 2.38333C10.9333 2.26111 11.0806 2.16667 11.2417 2.1C11.4028 2.03333 11.5722 2 11.75 2C11.9278 2 12.1 2.03333 12.2667 2.1C12.4333 2.16667 12.5778 2.26667 12.7 2.4L13.6167 3.33333C13.75 3.45556 13.8472 3.6 13.9083 3.76667C13.9694 3.93333 14 4.1 14 4.26667C14 4.44444 13.9694 4.61389 13.9083 4.775C13.8472 4.93611 13.75 5.08333 13.6167 5.21667L5.21667 13.6167C5.09444 13.7389 4.95278 13.8333 4.79167 13.9C4.63056 13.9667 4.46111 14 4.28333 14H2.66667ZM11.7333 5.2L12.6667 4.26667L11.7333 3.33333L10.8 4.26667L11.7333 5.2Z" fill="#8F8D98"/>
</svg>
