<svg width="11" height="11" viewBox="0 0 11 11" fill="none" xmlns="http://www.w3.org/2000/svg">
<path d="M3.46838 0.727783C2.02008 0.727783 0.841797 1.90607 0.841797 3.35436V7.55689C0.841797 9.00519 2.02008 10.1835 3.46838 10.1835H7.67091C9.1192 10.1835 10.2975 9.00519 10.2975 7.55689V3.35436C10.2975 1.90607 9.1192 0.727783 7.67091 0.727783H3.46838ZM3.46838 1.77842H7.67091C8.53978 1.77842 9.24686 2.48549 9.24686 3.35436V7.55689C9.24686 8.42577 8.53978 9.13284 7.67091 9.13284H3.46838C2.5995 9.13284 1.89243 8.42577 1.89243 7.55689V3.35436C1.89243 2.48549 2.5995 1.77842 3.46838 1.77842ZM8.19622 2.30373C8.0569 2.30373 7.92328 2.35908 7.82477 2.45759C7.72625 2.55611 7.67091 2.68973 7.67091 2.82905C7.67091 2.96837 7.72625 3.10199 7.82477 3.2005C7.92328 3.29902 8.0569 3.35436 8.19622 3.35436C8.33555 3.35436 8.46916 3.29902 8.56768 3.2005C8.66619 3.10199 8.72154 2.96837 8.72154 2.82905C8.72154 2.68973 8.66619 2.55611 8.56768 2.45759C8.46916 2.35908 8.33555 2.30373 8.19622 2.30373ZM5.56964 2.82905C4.12135 2.82905 2.94306 4.00733 2.94306 5.45563C2.94306 6.90393 4.12135 8.08221 5.56964 8.08221C7.01794 8.08221 8.19622 6.90393 8.19622 5.45563C8.19622 4.00733 7.01794 2.82905 5.56964 2.82905ZM5.56964 3.87968C6.43852 3.87968 7.14559 4.58676 7.14559 5.45563C7.14559 6.3245 6.43852 7.03158 5.56964 7.03158C4.70077 7.03158 3.99369 6.3245 3.99369 5.45563C3.99369 4.58676 4.70077 3.87968 5.56964 3.87968Z" fill="white"/>
</svg>
