<svg width="30" height="30" viewBox="0 0 30 30" fill="none" xmlns="http://www.w3.org/2000/svg">
<path d="M26.9749 7.35681V22.0704C26.9749 22.7448 26.7348 23.3221 26.2545 23.8024C25.7743 24.2826 25.197 24.5227 24.5226 24.5227H4.90442C4.23005 24.5227 3.65274 24.2826 3.1725 23.8024C2.69227 23.3221 2.45215 22.7448 2.45215 22.0704V7.35681C2.45215 6.68244 2.69227 6.10513 3.1725 5.6249C3.65274 5.14466 4.23005 4.90454 4.90442 4.90454H24.5226C25.197 4.90454 25.7743 5.14466 26.2545 5.6249C26.7348 6.10513 26.9749 6.68244 26.9749 7.35681ZM4.90442 9.80909H24.5226V7.35681H4.90442V9.80909ZM4.90442 14.7136V22.0704H24.5226V14.7136H4.90442Z" fill="#8F8D98"/>
</svg>
